<?xml version="1.0" encoding="utf-8"?>
<!-- Generator: Adobe Illustrator 24.1.2, SVG Export Plug-In . SVG Version: 6.00 Build 0)  -->
<svg version="1.1" id="Layer_1" xmlns="http://www.w3.org/2000/svg" xmlns:xlink="http://www.w3.org/1999/xlink" x="0px" y="0px"
	 viewBox="0 0 36 36" style="enable-background:new 0 0 36 36;" xml:space="preserve">
<style type="text/css">
	.st0{fill:#D9D9D9;filter:url(#Adobe_OpacityMaskFilter);}
	.st1{mask:url(#mask0_1544_6302_1_);}
	.st2{fill:#FFB422;}
	.st3{fill:#FFA800;}
	.st4{fill:#45BEF0;}
	.st5{fill:#1EA7DF;}
	.st6{fill:url(#SVGID_1_);}
	.st7{fill:#690A85;}
</style>
<defs>
	<filter id="Adobe_OpacityMaskFilter" filterUnits="userSpaceOnUse" x="0.4" y="-0.7" width="38.9" height="38.7">
		<feColorMatrix  type="matrix" values="1 0 0 0 0  0 1 0 0 0  0 0 1 0 0  0 0 0 1 0"/>
	</filter>
</defs>
<mask maskUnits="userSpaceOnUse" x="0.4" y="-0.7" width="38.9" height="38.7" id="mask0_1544_6302_1_">
	<path class="st0" d="M16,2.4c1.4-0.8,3.2-0.8,4.6,0l10.3,5.8c1.5,0.8,2.4,2.4,2.4,4.2l-0.1,11.3c0,1.7-0.9,3.3-2.5,4.1l-10.3,5.7
		c-1.4,0.8-3.2,0.8-4.6,0L5.6,27.6c-1.5-0.8-2.4-2.4-2.4-4.2l0.1-11.3c0-1.7,0.9-3.3,2.5-4.1L16,2.4z"/>
</mask>
<g class="st1">
	<path class="st2" d="M1.2,17.3c0.2-1,0.4-1.8,0.6-2.5c0.6-1.8,2-1.7,3.3-0.3c4.3,4.4,11.7,8.3,12.4,7.5c0.8-1,0.8-2.7,0.6-6.7
		c-0.2-4.7,5.5-4.2,8.9-0.9c1.5,1.5,3.3,3,5.2,4.2c3.7,2.3,4.3,4.8,3.9,6.6c-0.2,1.1-1.1,1.9-2,2.7C29.5,31.8,21.6,38,18.7,38
		c-4,0-5.4-4.4-14.5-9.4C1.1,27,0.1,22.3,1.2,17.3z"/>
	<path class="st3" d="M19.2,31.6c-2.4,1-13.4-4.9-17.7-10.4l-1,4L7,35.8L25.8,35C26.8,34.1,38.8,23.6,19.2,31.6z"/>
	<path class="st4" d="M15.3,17.1c2.1-2.3,7.8-9.5,3.6-15.9c-0.2-0.3-0.1-0.6,0.2-0.7C24-0.7,30,7.1,36,9.1c8.6,2.8-2.2,7.4-1.6,18.4
		c0.4,7-6.2-7.7-18.9-9.6C15.2,17.9,15,17.4,15.3,17.1z"/>
	<path class="st5" d="M26.5,10.2c4.9-2.1,3.3-3.6,1.9-4.2c-1.5,0.2-5.6,1.1-10.1,3c-4.5,1.9-2.1,6.2-0.4,8.1l11.3,10.7
		c3.8,4,3.8,5,5.1,0.4c1.7-5.7-5.2,1-13.6-11.8C19.8,15.1,20.4,12.8,26.5,10.2z"/>
	
		<linearGradient id="SVGID_1_" gradientUnits="userSpaceOnUse" x1="15.1653" y1="38.3673" x2="15.1555" y2="14.7766" gradientTransform="matrix(1 0 0 -1 0 38)">
		<stop  offset="0" style="stop-color:#CE21FF"/>
		<stop  offset="1" style="stop-color:#55006D"/>
	</linearGradient>
	<path class="st6" d="M3.7,8.5c-2.8,1.8-2.4,4.8-1.7,6.3c2.7,5.6,8.6,9.1,14.8,8.8l0.1,0c4.2,0,5.9-2.5,2.5-5.5
		c-4.4-3.8,4.9-7.4,7.4-9.6c4.5-3.7,0.3-4.2-2.1-6.9c-2.2-2.5-4.9-2.9-7.9-1.3C12.1,2.7,6.5,6.7,3.7,8.5z"/>
	<path class="st7" d="M12.4,17.8c-7.4,1-9.4-2.4-9.7-2.2c0,6.1,9.4,8.4,16,7.9c6.6-0.5,3-3.4,1.4-5.7c-1.3-1.9-1.7-2.7-0.7-4
		C18,13.8,18.7,17,12.4,17.8z"/>
</g>
</svg>
